<svg fill="#ffffff" id="Capa_1" enable-background="new 0 0 512 512" height="512" viewBox="0 0 512 512" width="512" xmlns="http://www.w3.org/2000/svg"><g><path d="m406.479 382.246v-95.659c0-47.5-36.498-86.63-82.922-90.836 3.026-3.755 5.745-7.765 8.12-11.994 1.515.515 3.133.807 4.823.807 8.284 0 15-6.716 15-15v-49.684c0-6.056-3.597-11.261-8.764-13.63v-19.513c0-47.827-38.91-86.737-86.736-86.737s-86.736 38.91-86.736 86.737v19.513c-5.167 2.369-8.764 7.574-8.764 13.63v49.684c0 8.284 6.716 15 15 15 1.689 0 3.307-.292 4.822-.807 2.375 4.229 5.094 8.24 8.12 11.994-46.424 4.206-82.922 43.336-82.922 90.836v95.659c-33.225 2.857-59.394 30.796-59.394 64.748 0 35.844 29.161 65.006 65.006 65.006h289.734c35.845 0 65.006-29.162 65.006-65.006.001-33.952-26.168-61.891-59.393-64.748zm-30-95.659v95.401h-240.959v-16.936c27.709-1.859 54.68-8.86 80.363-20.922 24.34-11.431 47.596-27.409 69.119-47.49 27.223-25.398 45.427-51.498 54.608-66.206 21.673 9.434 36.869 31.048 36.869 56.153zm-177.215-199.85c0-31.285 25.452-56.737 56.736-56.737s56.736 25.452 56.736 56.737v54.684c0 31.285-25.452 56.737-56.736 56.737s-56.736-25.452-56.736-56.737zm-2.526 138.633h37.42c6.981 1.817 14.3 2.787 21.841 2.787 7.619 0 15.01-.991 22.056-2.845.382.029 28.951.058 28.951.058-9.271 13.395-23.497 31.636-42.469 49.334-21.759 20.3-44.822 35.565-69.017 45.734v-39.562c0-8.284-6.716-15-15-15s-15 6.716-15 15v49.405c-9.841 2.36-19.843 3.941-30.001 4.718v-48.413c.001-33.754 27.463-61.216 61.219-61.216zm-120.611 221.624c0-19.302 15.703-35.006 35.006-35.006h68.054.01c19.303 0 35.006 15.704 35.006 35.006 0 12.883 3.777 24.894 10.268 35.005h-113.338c-19.303.001-35.006-15.703-35.006-35.005zm324.74 35.006h-121.659c-19.303 0-35.006-15.704-35.006-35.006 0-12.885-3.779-24.896-10.274-35.006h166.939c19.303 0 35.006 15.704 35.006 35.006s-15.703 35.006-35.006 35.006z"/></g></svg>